<?xml version="1.0" encoding="UTF-8" standalone="no"?>
<!-- Created with Inkscape (http://www.inkscape.org/) -->

<svg
   version="1.1"
   id="svg1"
   width="750.45862"
   height="1101.3468"
   viewBox="0 0 750.45861 1101.3468"
   sodipodi:docname="iStock-1441914195.eps"
   xml:space="preserve"
   xmlns:inkscape="http://www.inkscape.org/namespaces/inkscape"
   xmlns:sodipodi="http://sodipodi.sourceforge.net/DTD/sodipodi-0.dtd"
   xmlns="http://www.w3.org/2000/svg"
   xmlns:svg="http://www.w3.org/2000/svg"><defs
     id="defs1" /><sodipodi:namedview
     id="namedview1"
     pagecolor="#ffffff"
     bordercolor="#000000"
     borderopacity="0.25"
     inkscape:showpageshadow="2"
     inkscape:pageopacity="0.0"
     inkscape:pagecheckerboard="0"
     inkscape:deskcolor="#d1d1d1"
     showguides="true"><inkscape:page
       x="-2.2618908e-06"
       y="2.9158895e-07"
       width="750.45862"
       height="1101.3468"
       id="page2"
       margin="0"
       bleed="0" /></sodipodi:namedview><g
     id="g1"
     inkscape:groupmode="layer"
     inkscape:label="1"
     transform="translate(-1508.0897,-182.69328)"><g
       id="group-R5"><path
         style="fill:#c6dd45;fill-opacity:1;stroke:#000000;stroke-width:2.82843"
         d="m 1760.4276,1281.2337 c -7.1479,-1.2046 -31.3309,-7.3836 -53.7401,-13.7312 -53.4879,-15.1509 -72.7285,-19.0103 -129.2326,-25.9218 -27.6495,-3.382 -49.8174,-7.4994 -53.5522,-9.9465 -17.553,-11.5011 -19.1893,-32.3351 -4.1821,-53.2473 21.8076,-30.3887 39.3877,-67.2987 67.515,-141.7503 20.6565,-54.67671 26.8781,-63.65767 44.0994,-63.65767 13.1567,0 27.5375,12.29862 27.5375,23.55033 0,9.67764 -16.8023,57.15854 -38.4482,108.64944 -18.3462,43.6415 -20.0161,48.8196 -15.7446,48.8196 7.6641,0 148.0276,-65.971 201.271,-94.5976 97.0083,-52.157 147.5361,-84.30639 205.4094,-130.69599 85.3556,-68.41872 143.1444,-145.04616 169.641,-224.94249 22.1556,-66.8066 24.3471,-87.09813 16.5927,-153.63315 -5.2069,-44.67662 -11.7528,-69.64996 -26.7844,-102.18576 -27.2864,-59.06144 -76.1173,-116.4969 -157.9176,-185.74465 -23.856,-20.19527 -44.0424,-38.45876 -44.8585,-40.58552 -2.5097,-6.54024 1.7328,-22.30603 7.7365,-28.75031 6.6327,-7.11938 16.9939,-10.30386 26.094,-8.0199 17.221,4.32221 119.1257,95.90898 156.0536,140.25308 34.2275,41.10144 65.5727,95.87494 80.5596,140.77224 16.0631,48.12116 23.9185,150.20422 14.7546,191.74105 -5.118,23.19868 -28.0808,93.60207 -35.0558,107.48023 -11.2767,22.43743 -45.1566,78.06705 -55.5623,91.23117 -81.3725,102.94406 -198.2305,187.7611 -386.3613,280.4261 -40.4465,19.9221 -83.4032,40.4569 -95.4594,45.6327 -12.0562,5.1758 -21.9203,10.4043 -21.9203,11.6189 0,1.2145 5.4094,3.5975 12.0208,5.2955 6.6115,1.698 29.8399,7.9624 51.6188,13.9208 21.7789,5.9585 45.792,12.462 53.3625,14.4522 20.2439,5.3219 30.0761,14.6503 30.0761,28.5347 0,12.5248 -9.7297,25.0759 -19.4391,25.0759 -3.0547,0 -7.2492,0.4829 -9.3209,1.0732 -2.0718,0.5902 -9.6152,0.088 -16.7631,-1.117 z"
         id="path1683" /></g></g></svg>
