<?xml version="1.0" encoding="iso-8859-1"?>
<!-- Uploaded to: SVG Repo, www.svgrepo.com, Generator: SVG Repo Mixer Tools -->
<svg fill="#000000" height="800px" width="800px" version="1.1" id="Layer_1" xmlns="http://www.w3.org/2000/svg" xmlns:xlink="http://www.w3.org/1999/xlink" 
	 viewBox="0 0 512 512" xml:space="preserve">
<g>
	<g>
		<g>
			<path d="M472.178,34.62H39.822C17.864,34.62,0,52.485,0,74.442c0,17.955,0,345.234,0,363.115
				c0,21.958,17.864,39.822,39.822,39.822h432.356c21.958,0,39.822-17.864,39.822-39.822c0-17.89,0-345.165,0-363.115
				C512,52.485,494.136,34.62,472.178,34.62z M477.867,437.557c0,3.137-2.552,5.689-5.689,5.689H39.822
				c-3.137,0-5.689-2.552-5.689-5.689V153.839h443.733V437.557z M477.867,119.706H34.133V74.442c0-3.137,2.552-5.689,5.689-5.689
				h432.356c3.137,0,5.689,2.552,5.689,5.689V119.706z"/>
			<circle cx="71.805" cy="94.231" r="12.836"/>
			<circle cx="112.959" cy="94.231" r="12.836"/>
			<circle cx="154.112" cy="94.231" r="12.836"/>
			<path d="M104.009,402.228c4.368,0,8.736-1.667,12.067-4.998l107.893-107.893l53.305,53.304c6.664,6.665,17.472,6.665,24.136,0
				l68.83-68.83l9.728,9.728c9.242,9.243,25.139,5.085,28.554-7.65l15.955-59.548c3.427-12.808-8.372-24.265-20.902-20.902
				l-59.548,15.956c-12.685,3.4-16.921,19.283-7.652,28.554l9.728,9.728l-56.761,56.762l-53.305-53.304
				c-6.664-6.665-17.471-6.665-24.136,0L91.942,373.093c-6.665,6.665-6.665,17.471,0,24.136
				C95.273,400.563,99.641,402.228,104.009,402.228z"/>
		</g>
	</g>
</g>
</svg>